<?xml version="1.0" standalone="no"?>
<!DOCTYPE svg PUBLIC "-//W3C//DTD SVG 20010904//EN"
 "http://www.w3.org/TR/2001/REC-SVG-20010904/DTD/svg10.dtd">
<svg version="1.0" xmlns="http://www.w3.org/2000/svg"
 width="700.000000pt" height="700.000000pt" viewBox="0 0 700.000000 700.000000"
 preserveAspectRatio="xMidYMid meet">
<metadata>
Created by potrace 1.14, written by Peter Selinger 2001-2017
</metadata>
<g transform="translate(0.000000,700.000000) scale(0.100000,-0.100000)"
fill="#000000" stroke="none">
<path d="M3447 6557 c-66 -94 -338 -487 -364 -527 -13 -19 -31 -46 -41 -59
-16 -22 -104 -150 -293 -426 -46 -66 -142 -205 -214 -310 -536 -777 -682 -990
-782 -1135 -62 -91 -116 -169 -121 -175 -22 -28 -152 -223 -152 -229 0 -4 25
-50 55 -102 30 -51 51 -94 48 -94 -3 0 0 -8 8 -17 8 -10 28 -43 43 -73 16 -30
35 -62 41 -70 7 -8 20 -31 28 -50 9 -19 32 -64 53 -100 20 -36 52 -94 72 -130
19 -36 69 -126 110 -200 86 -155 126 -227 159 -289 13 -24 36 -65 50 -90 14
-25 42 -75 61 -111 19 -36 50 -91 68 -123 19 -32 34 -60 34 -62 0 -2 14 -28
31 -56 24 -41 28 -57 21 -73 -5 -12 -80 -133 -166 -269 -86 -137 -156 -251
-156 -253 0 -3 -5 -10 -11 -17 -6 -7 -41 -60 -77 -119 -128 -206 -497 -794
-560 -891 -35 -54 -65 -103 -68 -110 -3 -9 156 -12 703 -11 390 1 713 2 718 3
6 0 17 16 24 34 8 17 28 61 44 97 16 36 38 85 49 110 11 25 34 74 50 110 16
36 37 83 46 105 9 22 24 56 33 75 10 19 16 37 13 39 -2 2 -67 3 -144 3 -77 0
-138 3 -136 6 20 36 316 643 314 644 -2 2 7 17 20 35 12 17 22 34 22 38 0 3
53 113 119 244 l119 238 -64 132 c-35 74 -64 134 -64 136 0 1 -36 78 -80 169
-44 92 -80 169 -80 171 0 1 -36 78 -80 169 -44 92 -80 169 -80 173 0 3 24 -19
53 -48 50 -51 680 -669 939 -921 l117 -114 -98 -280 c-203 -576 -232 -657
-336 -945 -59 -162 -118 -321 -131 -353 -13 -33 -20 -62 -15 -65 11 -7 1318
-8 1324 -1 9 10 138 562 133 568 -3 3 -78 5 -165 4 -120 -1 -159 2 -156 11 35
112 269 831 397 1221 37 116 68 215 68 222 0 6 -26 31 -57 55 -32 24 -67 51
-78 61 -39 32 -691 549 -764 606 -19 15 -64 51 -100 80 -78 63 -79 64 -158
126 -35 27 -61 52 -58 55 2 4 28 8 57 10 72 3 386 57 478 82 41 11 84 22 94
24 105 24 447 159 466 184 3 4 24 15 48 25 23 11 42 23 42 28 0 4 6 8 13 8 20
1 186 124 270 202 89 83 268 315 254 331 -1 1 8 18 19 37 12 19 33 65 48 102
89 227 102 505 35 758 -159 603 -698 1099 -1424 1310 -117 34 -313 76 -398 86
-29 3 -63 8 -77 10 -14 2 -63 7 -110 10 -47 3 -91 7 -97 9 -7 2 -32 -24 -56
-58z m666 -851 c121 -41 262 -131 361 -231 153 -154 241 -359 235 -551 -4
-135 -44 -258 -123 -376 -40 -61 -149 -172 -216 -220 -25 -18 -47 -35 -50 -38
-5 -5 -28 -18 -135 -76 -127 -69 -346 -142 -565 -189 -69 -14 -132 -27 -140
-27 -8 0 -42 -4 -75 -8 -33 -5 -91 -12 -130 -15 -38 -3 -85 -8 -103 -11 -18
-2 -98 -6 -178 -9 -117 -5 -144 -3 -138 7 20 34 443 693 490 764 30 45 54 86
54 93 0 6 4 11 8 11 4 0 16 15 27 33 17 28 118 187 145 227 6 8 86 130 178
270 92 140 186 283 209 317 47 68 37 66 146 29z"/>
</g>
</svg>
