<?xml version="1.0" standalone="no"?>
<!DOCTYPE svg PUBLIC "-//W3C//DTD SVG 20010904//EN"
 "http://www.w3.org/TR/2001/REC-SVG-20010904/DTD/svg10.dtd">
<svg version="1.0" xmlns="http://www.w3.org/2000/svg"
 width="360.000000pt" height="360.000000pt" viewBox="0 0 360.000000 360.000000"
 preserveAspectRatio="xMidYMid meet">
<metadata>
Created by potrace 1.14, written by Peter Selinger 2001-2017
</metadata>
<g transform="translate(0.000000,360.000000) scale(0.100000,-0.100000)"
fill="#000000" stroke="none">
<path d="M959 3596 c-2 -2 -44 -6 -94 -10 -117 -8 -192 -22 -279 -53 -260 -93
-476 -329 -540 -589 -38 -153 -41 -231 -41 -1149 0 -944 2 -991 46 -1155 72
-267 303 -505 569 -584 166 -49 215 -51 1185 -51 772 0 950 4 1055 21 358 60
644 342 710 699 22 120 25 245 25 1085 0 902 -3 987 -41 1133 -57 222 -208
414 -424 540 -61 35 -210 83 -290 92 -36 5 -74 10 -85 13 -24 5 -1791 13
-1796 8z"/>
</g>
</svg>
